<svg version="1.2" xmlns="http://www.w3.org/2000/svg" viewBox="0 0 400 400" width="400" height="400">
	<style>
		.s0 { fill: #a66d01 } 
		.s1 { fill: #fdd487 } 
		.s2 { fill: #a7f3d0 } 
		.s3 { opacity: .16;fill: #e32cce } 
		.s4 { opacity: .2;fill: #87a8fc } 
		.s5 { opacity: .2;fill: #b91a17 } 
		.s6 { opacity: .2;fill: #f9f407 } 
		.s7 { opacity: .21;fill: #4caf4a } 
		.s8 { opacity: .44;fill: #87a8fc } 
		.s9 { opacity: .5;fill: #4eaf47 } 
		.s10 { opacity: .59;fill: #e32cce } 
		.s11 { opacity: .61;fill: #b91716 } 
		.s12 { opacity: .62;fill: #87a7fc } 
		.s13 { opacity: .71;fill: #4baf4b } 
		.s14 { opacity: .87;fill: #b91917 } 
		.s15 { opacity: .92;fill: #4baf4b } 
		.s16 { opacity: .94;fill: #f9f407 } 
		.s17 { opacity: .95;fill: #e32cce } 
	</style>
	<path id="Path 0" fill-rule="evenodd" class="s0" d="m197 6.15c6.32-0.06 15.78 0.34 21 0.89 5.22 0.56 14 1.92 19.5 3.04 5.5 1.11 15.4 3.82 22 6.01 6.6 2.2 17.18 6.48 23.5 9.52 6.32 3.05 15.77 8.35 21 11.78 5.23 3.44 13.55 9.64 18.5 13.79 4.95 4.14 11.95 10.64 15.55 14.43 3.6 3.79 9.06 10.04 12.13 13.89 3.07 3.85 8.08 10.83 11.12 15.5 3.05 4.67 8.03 13.67 11.08 20 3.05 6.33 7.33 16.9 9.53 23.5 2.19 6.6 4.9 16.5 6.01 22 1.12 5.5 2.48 14.28 3.04 19.5 0.55 5.22 1.01 14 1.01 19.5 0 5.5-0.46 14.28-1.01 19.5-0.56 5.22-1.92 14-3.04 19.5-1.11 5.5-3.82 15.4-6.01 22-2.2 6.6-6.48 17.18-9.53 23.5-3.05 6.32-8.03 15.32-11.08 20-3.04 4.68-8.05 11.65-11.12 15.5-3.07 3.85-8.53 10.1-12.13 13.89-3.6 3.79-10.6 10.29-15.55 14.43-4.95 4.15-13.27 10.35-18.5 13.79-5.23 3.43-14.68 8.73-21 11.78-6.32 3.04-16.9 7.32-23.5 9.52-6.6 2.19-16.5 4.9-22 6.01-5.5 1.12-14.28 2.48-19.5 3.04-5.22 0.55-14 1.01-19.5 1.01-5.5 0-14.28-0.46-19.5-1.01-5.22-0.56-14-1.92-19.5-3.04-5.5-1.11-15.4-3.82-22-6.01-6.6-2.2-17.17-6.48-23.5-9.52-6.33-3.05-15.78-8.35-21-11.78-5.22-3.44-13.55-9.64-18.5-13.79-4.95-4.14-11.95-10.64-15.55-14.43-3.6-3.79-9.06-10.04-12.13-13.89-3.07-3.85-8.08-10.82-11.12-15.5-3.05-4.68-8.03-13.68-11.08-20-3.05-6.32-7.33-16.9-9.53-23.5-2.19-6.6-4.9-16.5-6.01-22-1.12-5.5-2.48-14.28-3.04-19.5-0.55-5.22-1.01-14-1.01-19.5 0-5.5 0.46-14.28 1.01-19.5 0.56-5.22 1.92-14 3.04-19.5 1.11-5.5 3.82-15.4 6.01-22 2.2-6.6 6.48-17.17 9.52-23.5 3.05-6.33 8.35-15.78 11.78-21 3.44-5.22 9.64-13.55 13.79-18.5 4.14-4.95 10.64-11.95 14.43-15.55 3.79-3.6 10.04-9.06 13.89-12.13 3.85-3.07 10.83-8.08 15.5-11.12 4.67-3.05 13.67-8.03 20-11.08 6.33-3.05 16.9-7.33 23.5-9.53 6.6-2.19 16.72-4.94 22.5-6.11 5.78-1.16 13.88-2.48 18-2.92 4.13-0.44 12.68-0.85 19-0.91zm-11 182.67c-1.37 1.03-3.53 3.4-4.8 5.27-1.26 1.88-2.76 5.21-3.34 7.41-0.58 2.2-0.78 5.69-0.46 7.75 0.33 2.06 1.44 5.44 2.47 7.5 1.03 2.06 3.51 5.21 5.5 7 2 1.79 5.54 3.75 7.88 4.35 2.34 0.61 6.28 0.94 8.75 0.73 2.66-0.23 6.52-1.59 9.44-3.36 3.74-2.24 5.64-4.32 7.78-8.47 1.98-3.83 2.83-6.95 2.81-10.25-0.02-2.61-0.73-6.44-1.58-8.5-0.85-2.06-3.21-5.46-5.25-7.54-2.38-2.44-5.48-4.31-8.7-5.26-2.75-0.81-6.12-1.45-7.5-1.42-1.37 0.03-4.3 0.7-6.5 1.49-2.2 0.79-5.12 2.27-6.5 3.3z"/>
	<path id="Path 0" fill-rule="evenodd" class="s1" d="m203.5 8.48c12.28 0.19 23.09 0.9 28 1.83 4.4 0.83 11.82 2.5 16.5 3.7 4.68 1.2 12.55 3.65 17.5 5.44 4.95 1.79 13.27 5.3 18.5 7.8 5.23 2.51 13.77 7.36 19 10.8 5.23 3.43 12.65 8.81 16.5 11.96 3.85 3.15 10.77 9.49 15.38 14.11 4.62 4.61 10.96 11.53 14.11 15.38 3.15 3.85 8.53 11.28 11.96 16.5 3.44 5.22 8.29 13.78 10.8 19 2.5 5.22 6.08 13.78 7.96 19 1.87 5.22 4.47 13.78 5.76 19 1.29 5.22 2.95 12.87 3.69 17 0.85 4.73 1.34 15.43 1.34 29 0 13.57-0.49 24.27-1.34 29-0.74 4.12-2.4 11.78-3.69 17-1.29 5.22-3.89 13.77-5.76 19-1.88 5.23-5.46 13.77-7.96 19-2.51 5.23-7.36 13.77-10.8 19-3.43 5.23-8.81 12.65-11.96 16.5-3.15 3.85-9.49 10.77-14.11 15.38-4.61 4.62-11.53 10.96-15.38 14.11-3.85 3.15-11.27 8.53-16.5 11.96-5.23 3.44-13.77 8.29-19 10.8-5.23 2.5-13.77 6.08-19 7.96-5.23 1.87-13.78 4.47-19 5.76-5.22 1.29-12.88 2.95-17 3.69-4.73 0.85-15.43 1.34-29 1.34-13.57 0-24.27-0.49-29-1.34-4.13-0.74-11.78-2.4-17-3.69-5.22-1.29-13.78-3.89-19-5.76-5.22-1.88-13.78-5.46-19-7.96-5.22-2.51-13.78-7.36-19-10.8-5.22-3.43-12.65-8.81-16.5-11.96-3.85-3.15-10.77-9.49-15.38-14.11-4.62-4.61-10.96-11.53-14.11-15.38-3.15-3.85-8.53-11.27-11.96-16.5-3.44-5.23-8.29-13.77-10.8-19-2.5-5.23-6.08-13.77-7.96-19-1.87-5.23-4.47-13.78-5.76-19-1.29-5.22-2.95-12.88-3.69-17-0.85-4.73-1.34-15.43-1.34-29 0-13.57 0.49-24.27 1.34-29 0.74-4.13 2.4-11.78 3.69-17 1.29-5.22 3.89-13.78 5.76-19 1.88-5.22 5.46-13.78 7.96-19 2.51-5.22 7.36-13.78 10.8-19 3.43-5.22 8.81-12.65 11.96-16.5 3.15-3.85 9.49-10.77 14.11-15.38 4.61-4.62 11.53-10.96 15.38-14.11 3.85-3.15 11.28-8.53 16.5-11.96 5.22-3.44 13.78-8.29 19-10.8 5.22-2.5 13.78-6.08 19-7.96 5.22-1.87 13.78-4.47 19-5.77 5.22-1.3 12.88-2.84 17-3.44 4.13-0.59 8.63-1.27 10-1.5 1.38-0.24 11.5-0.28 22.5-0.1zm-21 180.18c-1.1 1.04-3.13 3.69-4.5 5.87-2.14 3.4-2.5 5.15-2.5 12.13 0 7.47 0.26 8.54 3.03 12.5 1.67 2.39 5.27 5.82 8 7.63 4.51 2.98 5.67 3.28 12.47 3.28 6.8 0 7.96-0.3 12.47-3.28 2.73-1.81 6.33-5.24 8-7.63 2.77-3.96 3.03-5.03 3.03-12.5 0-6.98-0.36-8.73-2.5-12.13-1.38-2.18-3.4-4.83-4.5-5.87-1.1-1.05-4.25-2.97-7-4.27-2.96-1.4-6.84-2.37-9.5-2.37-2.66 0-6.54 0.97-9.5 2.37-2.75 1.3-5.9 3.22-7 4.27z"/>
	<path id="Path 0" fill-rule="evenodd" class="s2" d="m252 11.5c3.02 0.22 7.07 1.06 9 1.86 1.93 0.8 6.04 4.08 9.15 7.29 3.1 3.22 6.58 7.87 7.72 10.35 1.15 2.48 2.1 5.29 2.11 6.25 0.01 0.96 1.26 2.26 2.77 2.88 1.51 0.61 4.55 1.47 6.75 1.9 2.2 0.43 7.82 2.58 12.5 4.78 5.25 2.46 9.86 5.47 12.05 7.84 1.96 2.12 5.67 4.86 8.25 6.1 2.59 1.24 6.31 3.71 8.28 5.5 1.97 1.79 4.44 5.05 5.48 7.25 1.05 2.2 1.91 5.13 1.9 6.5 0 1.38 0.68 4.19 1.52 6.25 0.83 2.06 1.52 4.88 1.52 6.25q0.01 2.5 2.25 3.4c1.24 0.5 3.15 1.77 4.25 2.82 1.1 1.06 3.8 3.07 6 4.47 2.2 1.4 4.74 3.4 5.64 4.43 0.91 1.03 3.72 5.37 6.25 9.63 2.54 4.26 4.61 8.31 4.61 9-0.01 0.69 0.94 3.05 2.1 5.25 1.16 2.2 3.12 5.13 4.35 6.5 1.24 1.38 2.99 4.41 3.9 6.75 0.91 2.34 1.65 6.5 1.65 9.25 0 2.75-0.64 6.46-1.42 8.25-0.82 1.87-1.05 3.67-0.56 4.25 0.48 0.55 1.31 9.32 1.86 19.5 0.54 10.18 1.51 20.97 2.14 24 0.64 3.03 1.39 8.43 1.68 12 0.41 5.1 0.1 7.47-1.44 11-1.08 2.47-2.26 5.85-2.62 7.5-0.37 1.65-2.46 5.93-4.65 9.5-2.2 3.57-3.97 6.95-3.95 7.5 0.02 0.55-2.18 3.02-4.89 5.5-2.71 2.48-5.91 5.18-7.11 6-2.18 1.5-2.18 1.51-0.95 18 1.21 16.22 1.19 16.58-0.97 21-1.2 2.48-3.3 6.52-4.65 9-1.36 2.48-4.19 6.07-6.3 8-2.1 1.93-7.17 5.16-11.25 7.2-4.08 2.03-8.77 3.99-10.42 4.33-1.65 0.35-4.69 1.28-6.75 2.06-2.06 0.77-5.21 1.41-7 1.41-2.05 0-5.66 1.49-9.75 4.02-3.57 2.2-8.07 4.27-10 4.59-1.93 0.32-6.88 2.22-11 4.23-5.51 2.69-8.03 4.57-9.5 7.1-1.1 1.89-4.25 5.74-7 8.56-3.51 3.6-6.34 5.49-9.5 6.37-2.47 0.69-5.85 1.76-7.5 2.38-1.65 0.61-6.6 1.31-11 1.54-6.78 0.35-8.61 0.09-12-1.73-2.2-1.18-5.57-3.26-7.5-4.63-1.93-1.37-4.4-2.51-5.5-2.53-1.1-0.02-5.6-0.51-10-1.07-4.4-0.57-11.82-1.07-16.5-1.11-4.68-0.04-10.53 0.51-13 1.21-2.47 0.7-6.97 1.96-10 2.79-3.03 0.84-7.07 2.19-9 3-1.93 0.82-5.75 1.94-8.5 2.5-2.75 0.56-8.82 1.24-13.5 1.51-6.79 0.38-9.21 0.13-12-1.27-1.92-0.96-4.98-2.91-6.79-4.35-1.8-1.44-5.36-4.41-7.9-6.61-2.53-2.2-5.43-5.8-6.44-8-1-2.2-1.85-5.13-1.89-6.5-0.04-1.69-2.73-5.42-8.29-11.5-4.53-4.95-9.57-11.02-11.21-13.5-1.63-2.48-3.54-5.85-4.25-7.5-0.7-1.65-1.29-3.68-1.31-4.5-0.02-0.82-2.13-2.85-4.7-4.5-2.56-1.65-5.89-4.8-7.39-7-1.5-2.2-3.04-5.35-3.42-7-0.39-1.7-2.47-4.56-4.8-6.59-2.26-1.97-5.46-6.08-7.11-9.13-2.67-4.94-3.49-5.68-7.5-6.73-2.48-0.65-5.85-2.2-7.5-3.45-1.65-1.25-5.7-5.96-9-10.46-3.3-4.51-6.29-9.19-6.65-10.42-0.36-1.22-0.7-5.26-0.75-8.97-0.06-3.97 0.53-8.3 1.42-10.5 0.84-2.06 1.52-5.1 1.51-6.75-0.01-1.65 0.92-4.57 2.08-6.5 1.15-1.93 4.75-6.09 13.89-15l-1.69-2.75c-0.93-1.51-2.27-3.87-2.99-5.25-0.75-1.43-1.31-5.83-1.31-10.25-0.01-5.86 0.48-8.66 2-11.5 1.11-2.06 2.57-4.49 3.25-5.4 1.04-1.38 0.51-2.82-3.26-8.97-4.13-6.72-4.53-7.95-4.82-14.85-0.3-7.03-0.1-7.9 3-13.04 1.83-3.03 4.22-7.24 5.32-9.36 1.1-2.11 6.72-8.67 12.5-14.58 5.78-5.91 12.3-11.95 14.5-13.42 2.2-1.48 5.91-4.03 8.25-5.66 2.34-1.63 4.77-4.21 5.4-5.72 0.64-1.51 1.48-5 1.88-7.75 0.39-2.75 2.12-8.83 3.84-13.5 1.71-4.67 4.36-9.78 5.87-11.34 1.52-1.56 4.79-4.03 7.26-5.49 2.63-1.54 7-2.97 10.5-3.43 3.3-0.43 11.4-1.45 18-2.28 6.6-0.82 13.91-1.72 16.25-1.98 3.71-0.42 4.5-0.96 6.17-4.23 1.05-2.06 3.64-5.38 5.75-7.37 2.1-1.99 7.88-5.46 21.83-11.81l26 0.73c20.37 0.58 26.48 1.06 28.21 2.22 1.66 1.11 3.27 1.27 6.5 0.65 2.36-0.46 5.64-1.29 7.29-1.85 1.65-0.56 4.35-1.4 6-1.87 1.65-0.48 5.47-0.68 8.5-0.45zm-60.25 161.48c-2.61 0.01-4.94 0.47-5.16 1.02-0.23 0.55-1.81 1-3.52 1-2.6 0-3.17 0.44-3.57 2.75-0.26 1.51-1.72 4.68-3.24 7.05-1.62 2.5-4.87 5.53-7.77 7.24-2.74 1.61-6.68 3.17-8.74 3.45-2.06 0.28-3.75 0.96-3.75 1.51 0 0.55-1.35 3.03-3 5.5-1.67 2.5-3 5.83-3 7.5 0 1.65-0.45 4.13-1 5.5-0.74 1.84-0.6 3.43 0.5 6 0.82 1.93 1.5 5.07 1.5 7 0 2.68 0.76 4.19 3.25 6.44 1.79 1.62 5.72 4.16 8.75 5.65l5.5 2.69c9.18-4.62 12.01-5.28 16.5-5.28 3.3 0 7.24 0.47 8.75 1.05 1.51 0.58 7.25 1.22 12.75 1.42 5.5 0.21 13.82 0.57 18.5 0.81 4.68 0.24 9.39 0.62 10.47 0.83 1.45 0.29 2.4-0.53 3.63-3.11 0.92-1.93 2.39-5.75 3.26-8.5 0.88-2.75 1.62-7.03 1.64-9.5 0.03-2.47-0.68-6.3-1.58-8.5-1.24-3.03-1.49-5.82-1.05-11.5 0.31-4.12 0.87-9.3 1.22-11.5 0.62-3.8 0.44-4.19-3.72-7.73-4.08-3.48-4.93-3.76-12.87-4.38-4.68-0.36-10.07-1.33-12-2.15-1.93-0.83-5.3-1.83-7.5-2.24-2.2-0.4-4.68-1.01-5.5-1.36-0.82-0.34-2.18-0.18-3 0.36-0.82 0.53-3.64 0.98-6.25 0.98z"/>
	<g id="Lager 2">
		<path id="Path 0" class="s3" d="m184 37.13c-1.38 0.55-3.3 1.76-4.28 2.68-0.98 0.93-1.76 2.14-1.72 2.69 0.03 0.55 0.57 0.17 1.2-0.84 0.62-1.02 2.63-2.48 4.47-3.25 1.83-0.78 4.01-1.41 4.83-1.41 0.82 0 2.4 0.9 3.5 2 1.1 1.1 2 1.55 2 1 0-0.55-1.01-1.68-2.25-2.51-1.24-0.83-2.93-1.47-3.75-1.43-0.82 0.03-2.62 0.52-4 1.07zm113.5 196.61c1.79 0.27 4.36 1.92 6.37 4.1 1.85 2.01 3.01 2.98 2.56 2.16-0.44-0.83-1.96-2.74-3.37-4.25-1.8-1.94-3.45-2.71-5.56-2.6l-3 0.15zm-189.85 22.26c-1.46 1.1-3.1 3.68-3.64 5.75-0.55 2.06-0.96 4.42-0.92 5.25 0.05 0.82 0.7-0.75 1.46-3.5 0.86-3.18 2.38-5.82 4.16-7.25 1.53-1.23 2.52-2.25 2.19-2.25-0.33 0-1.79 0.9-3.25 2z"/>
		<path id="Path 1" class="s4" d="m39.12 258.75c-0.07 3.44 0.22 6.25 0.63 6.25 0.41 0 0.62-2.14 0.45-4.75-0.16-2.61-0.45-5.43-0.63-6.25-0.19-0.82-0.39 1.31-0.45 4.75z"/>
		<path id="Path 2" fill-rule="evenodd" class="s5" d="m150.73 70.5c0.21 2.2 0.21 6.03 0 8.5-0.21 2.47-0.38 0.67-0.38-4 0-4.67 0.17-6.7 0.38-4.5zm188.9 144c0.17 1.65 0.44 5.77 0.59 9.16 0.15 3.38-0.06 5.97-0.47 5.75-0.41-0.23-0.68-4.35-0.59-9.16 0.09-4.81 0.3-7.4 0.47-5.75zm-263.72 4.72c1.27 0.24 1.59 1.68 1.59 13.78l-0.25-6.5c-0.17-4.54-0.64-6.5-1.55-6.5-0.71 0-1.93 0.56-2.7 1.25-1.2 1.07-1.2 0.99-0.04-0.54 0.75-0.99 2.08-1.66 2.95-1.49zm-4.17 13.28c0.2 2.75 0.2 6.8-0.01 9-0.21 2.2-0.38-0.05-0.38-5 0.01-4.95 0.18-6.75 0.39-4z"/>
		<path id="Path 3" class="s6" d="m96.5 249c0.36 1.44-1.26 3.99-5.75 9.04-3.44 3.88-6.44 7.59-6.68 8.25-0.23 0.67 2.26-1.94 5.54-5.79 3.28-3.85 6.51-7.34 7.18-7.75 0.66-0.41 1.26-1.62 1.31-2.69 0.06-1.07-0.39-2.19-1-2.5-0.69-0.35-0.91 0.19-0.6 1.44zm48.82 39.75c-0.34 0.96-0.17 2.43 0.38 3.25 0.55 0.82 2.08 1.59 3.4 1.7 2.39 0.2 2.39 0.2-0.1-0.54-1.55-0.46-2.59-1.58-2.75-2.95-0.21-1.82 0.32-2.27 3-2.55l3.25-0.34c-5.59-0.27-6.73 0.2-7.18 1.43z"/>
		<path id="Path 4" class="s7" d="m77.25 102.54c1.6 0.85 2.75 2.3 2.75 3.46 0 1.17-0.83 2.21-2 2.5-1.6 0.4-1.55 0.45 0.25 0.25 1.49-0.17 2.31-0.98 2.44-2.4 0.11-1.23-0.75-2.85-2-3.76-1.2-0.88-2.64-1.58-3.19-1.56-0.55 0.03 0.24 0.71 1.75 1.51z"/>
		<path id="Path 5" fill-rule="evenodd" class="s8" d="m321.75 118.59c1.94 0.35 2.3 1.14 2.6 5.66l0.34 5.25c-0.18-10.63-0.36-11.01-2.69-11.16-2.08-0.14-2.12-0.1-0.25 0.25zm-280.55 16.16c0.16 3.44 0.52 6.25 0.8 6.24 0.27 0 0.35-2.59 0.16-5.75-0.18-3.16-0.54-5.96-0.8-6.24-0.26-0.28-0.33 2.31-0.16 5.75zm167.98 3.5c-0.15 4.88 0.08 5.75 1.57 5.73q1.73-0.02 0.57-0.75c-0.65-0.4-1.35-2.98-1.57-5.73l-0.39-5zm-72.83 184.51c0.13 6.34 0.4 7.34 2.15 7.82 1.1 0.3 2.19 0.3 2.42-0.01 0.23-0.32-0.34-0.57-1.25-0.57-1.32 0-1.86-1.51-2.57-7.25l-0.91-7.25zm95.63 15.49c0.02 5.32 0.2 5.75 2.33 5.75 1.26 0 2.84-0.57 3.51-1.25 0.67-0.69 1.18-1.93 1.14-2.75-0.05-0.89-0.46-0.58-1.02 0.75-0.51 1.23-1.72 2.25-2.68 2.25-1.39 0-1.82-1-2.04-4.75-0.16-2.61-0.51-4.98-0.78-5.25-0.27-0.28-0.48 2.08-0.46 5.25z"/>
		<path id="Path 6" class="s9" d="m89.79 59.68c-0.3 0.45-0.88 2.4-1.29 4.32-0.4 1.92-1.13 4.06-1.62 4.75-0.48 0.69-0.74 2.04-0.56 3 0.17 0.96 1.22-1.38 2.32-5.2 1.1-3.83 1.93-7.12 1.85-7.32-0.07-0.2-0.39 0-0.7 0.45zm-7.8 14.07c-0.7 2.06-0.98 4.54-0.63 5.5 0.53 1.44 0.91 1.53 2.18 0.5 0.85-0.69 1.52-1.7 1.49-2.25-0.03-0.55-0.47-0.33-0.98 0.5-0.59 0.98-0.74-0.14-0.41-3.25 0.27-2.61 0.3-4.75 0.06-4.75-0.25 0-1.01 1.69-1.71 3.75zm135.16 7.93c-0.71 2.1-1.67 4.72-2.14 5.82-0.47 1.1-1.15 3.35-1.51 5-0.37 1.65-0.43 2.78-0.13 2.5 0.29-0.28 1.59-4.07 2.89-8.43 1.29-4.37 2.32-8.11 2.27-8.32-0.05-0.21-0.67 1.33-1.38 3.43zm-6.15 9.32c0 1.1-0.45 2.22-1 2.5-0.55 0.28-1 1.85-1 3.5 0 1.74 0.53 3 1.25 2.99 0.82 0 1.33-1.9 1.49-5.5 0.13-3.02 0.01-5.49-0.25-5.49-0.27 0-0.49 0.9-0.49 2zm-156.39 128.25c-0.32 1.24-0.59 3.49-0.6 5 0 1.51 0.44 2.75 0.99 2.75 0.55 0 1.45-0.9 2-2 0.55-1.1 0.99-2.34 0.98-2.75 0-0.41-0.47-0.07-1.03 0.75-0.75 1.1-0.9 0.51-0.54-2.25 0.27-2.06 0.1-3.75-0.37-3.75-0.47 0-1.11 1.01-1.43 2.25zm261.89 48.42c-0.46 0.36-0.76 1.94-0.67 3.5 0.11 1.77 0.73 2.83 1.67 2.83 0.82 0 1.51-0.56 1.51-1.25 0.01-0.69 0.16-2.26 0.33-3.5 0.17-1.24-0.21-2.25-0.85-2.25-0.64 0-1.53 0.3-1.99 0.67zm27.24 26.51c-1.5 4.57-2.52 8.55-2.28 8.82 0.24 0.27 1.51-3.28 2.81-7.89 1.3-4.61 2.33-8.58 2.27-8.82-0.05-0.24-1.31 3.31-2.8 7.89zm-113.8-1.25c-0.62 1.07-1.08 3.09-1.03 4.5 0.06 1.58 0.67 2.57 1.59 2.57 0.82 0 1.5-0.45 1.5-1 0-0.55 0.27-1.79 0.59-2.75 0.51-1.5 0.43-1.53-0.56-0.25-0.92 1.2-1.04 0.84-0.61-1.75 0.3-1.79 0.34-3.25 0.09-3.25-0.25 0-0.96 0.87-1.57 1.93zm108.21 8.88c-0.75 2.58-0.97 5.07-0.5 5.55 0.47 0.47 1.41 0.58 2.1 0.25 0.85-0.42 1.09-2.12 0.75-5.36-0.28-2.61-0.61-4.84-0.75-4.94-0.14-0.11-0.86 1.92-1.6 4.5z"/>
		<path id="Path 7" class="s10" d="m292.3 314.65c-0.67 0.27-2.13 2.03-3.25 3.92-1.13 1.89-1.94 3.63-1.8 3.89 0.14 0.25 1.02-1.11 1.97-3.02 1.2-2.42 2.7-3.74 5-4.36 1.8-0.5 2.38-0.9 1.28-0.91-1.1-0.01-2.54 0.21-3.2 0.48z"/>
		<path id="Path 8" class="s11" d="m251.99 24.25c-0.63 2.89-1.33 6.83-1.56 8.75-0.29 2.45-0.13 3.05 0.52 2 0.51-0.83 1.12-2.4 1.34-3.5 0.23-1.1 0.66-2.68 0.97-3.5 0.31-0.82 1.06-3.07 1.67-5 0.61-1.93 1.1-3.61 1.09-3.75-0.01-0.14-0.66-0.25-1.45-0.25-0.91 0-1.84 1.9-2.58 5.25zm-100.1 35.14c-1.01 1.06-1.22 4.03-0.86 12.17 0.26 5.93 0.92 10.95 1.47 11.16 0.55 0.2 1.36-0.44 1.8-1.42 0.44-0.99 1.03-6.64 1.31-12.55 0.43-8.97 0.28-10.75-0.93-10.75-0.8 0-2.06 0.63-2.79 1.39zm96.45 44.11c0.38 0.85 0.23 1.28-0.34 1-0.55-0.28-1.22 1.19-1.5 3.25-0.27 2.06-0.71 5.33-0.98 7.25-0.43 3.12-0.26 2.95 1.5-1.5 1.09-2.75 2.18-6.46 2.43-8.25 0.27-1.97 0.01-3.25-0.66-3.25-0.61 0-0.81 0.67-0.45 1.5zm-196.33 39.25c-0.62 2.61-1.33 6.55-1.58 8.75-0.31 2.78-0.16 3.54 0.5 2.5 0.53-0.82 1.14-2.4 1.36-3.5 0.23-1.1 0.66-2.68 0.97-3.5 0.31-0.82 1.03-2.85 1.59-4.5 0.57-1.65 0.72-3.35 0.34-3.78-0.38-0.43-1-0.76-1.37-0.75-0.38 0.02-1.19 2.17-1.81 4.78zm288.9 63.5c-0.71 1.41-1 5.99-0.76 12.25 0.3 8.01 0.67 10 1.86 10q1.49 0.01 2.17-4.5c0.37-2.47 0.71-7.99 0.75-12.25 0.06-6.19-0.23-7.75-1.4-7.75-0.81 0-1.99 1.01-2.62 2.25zm-268 16c-0.75 1.47-0.97 5.71-0.63 12.25 0.38 7.49 0.85 10 1.87 10 0.83 0 1.61-1.71 2.03-4.5 0.37-2.47 0.71-7.99 0.75-12.25 0.06-6.19-0.23-7.75-1.4-7.75-0.81 0-1.99 1.01-2.62 2.25zm189.61 18.25c-0.29 1.38-0.83 3.74-1.2 5.25-0.38 1.51-0.76 3.43-0.86 4.25-0.09 0.82-0.51 2.63-0.92 4q-0.75 2.48 0.22 1.5c0.54-0.55 1.95-4.15 3.12-8 1.18-3.85 2.14-7.56 2.13-8.25 0-0.69-0.45-1.25-0.99-1.25-0.55 0-1.22 1.13-1.5 2.5zm-104.64 17.75c-0.65 2.34-1.45 6.13-1.78 8.43-0.33 2.29-0.32 3.87 0.02 3.5 0.34-0.38 1.58-3.94 2.75-7.93 1.17-3.99 2.13-7.47 2.13-7.75 0-0.28-0.44-0.5-0.97-0.5-0.53 0-1.5 1.91-2.15 4.25zm97.24 64c-0.71 0.8-1.02 5.34-0.87 12.5 0.18 8.21 0.59 11.25 1.5 11.25 0.69 0 1.48-0.68 1.75-1.5 0.27-0.82 0.75-6.45 1.06-12.5 0.46-9.18 0.31-11-0.89-11-0.8 0-1.94 0.56-2.55 1.25zm-120.66 20.5c-0.32 1.51-0.81 3.65-1.09 4.75-0.28 1.1-0.7 3.57-0.92 5.5-0.38 3.2-0.24 3.07 1.57-1.5 1.09-2.75 2.18-6.46 2.43-8.25 0.24-1.79 0.03-3.25-0.49-3.25-0.51 0-1.19 1.24-1.5 2.75z"/>
		<path id="Path 9" class="s12" d="m137.25 74.75c-1.33 1.33-1.69 3.12-1.5 7.5 0.22 5 0.51 5.75 2.25 5.75 1.1 0 2.19-0.34 2.43-0.75 0.23-0.41 0.68-3.79 0.99-7.5 0.46-5.56 0.3-6.75-0.93-6.75-0.82 0-2.28 0.79-3.24 1.75zm180.35 45.5c-1.66 1.11-1.79 2.17-1.22 9.75 0.35 4.68 0.97 8.87 1.38 9.33 0.41 0.46 1.64 0.4 2.74-0.13 1.23-0.59 2.28-2.45 2.74-4.83 0.41-2.13 0.74-6.46 0.75-9.62 0.01-5.32-0.16-5.75-2.27-5.75-1.25 0-3.1 0.56-4.12 1.25zm-274.74 5.39c-0.82 1-1.22 3.27-1 5.75 0.2 2.26 0.45 5.23 0.55 6.61 0.12 1.49 0.88 2.6 1.89 2.75 0.94 0.14 2.09-0.54 2.56-1.5 0.48-0.96 1.06-4.79 1.3-8.5 0.41-6.41 0.32-6.75-1.75-6.75-1.2 0-2.8 0.74-3.55 1.64zm168.39 1.85c-2.09 1.4-2.2 2-1.6 8.26 0.36 3.71 1.15 7.07 1.75 7.46 0.61 0.4 1.69 0.17 2.41-0.5 0.72-0.66 1.66-4.36 2.11-8.21 0.44-3.85 0.64-7.34 0.44-7.75-0.2-0.41-0.92-0.75-1.61-0.76-0.69 0-2.26 0.67-3.5 1.5zm155.63 83.87c-2.22 1.15-2.36 1.71-2.04 8.19 0.19 3.82 0.75 7.4 1.26 7.95 0.6 0.66 1.45 0.49 2.47-0.5 1.01-0.97 1.73-4 2.03-8.61 0.27-3.92 0.07-7.38-0.43-7.69-0.5-0.32-1.98-0.02-3.29 0.66zm-324.87 37.39c-2.06 1.6-2.19 2.31-1.63 8.5 0.57 6.25 0.79 6.73 2.86 6.5 1.6-0.18 2.43-1.12 2.89-3.25 0.35-1.65 0.69-5.36 0.75-8.25 0.09-3.85-0.25-5.25-1.26-5.25-0.75 0-2.38 0.79-3.61 1.75zm96.44 62.75c-1.35 1.38-2.26 3.28-2.02 4.25 0.23 0.96 0.68 4.56 1 8 0.46 5.04 0.91 6.26 2.32 6.29 0.96 0.03 2.31-0.53 3-1.25 0.72-0.74 1.47-5.19 1.77-10.54 0.49-8.85 0.43-9.25-1.55-9.25-1.13 0-3.17 1.12-4.52 2.5zm95.8 15.98c-1.87 1.27-2.16 2.15-1.7 5.27 0.31 2.06 0.64 5.21 0.75 7 0.15 2.36 0.68 3.25 1.95 3.25 0.96 0 2.15-1.01 2.64-2.25 0.48-1.24 1.04-4.94 1.22-8.23 0.27-4.67 0.02-6.05-1.13-6.27-0.82-0.16-2.49 0.39-3.73 1.23z"/>
		<path id="Path 10" class="s13" d="m86.95 57.25c-0.03 0.69-0.31 3.27-0.62 5.75-0.31 2.47-0.9 4.72-1.31 5-0.41 0.28-0.96 2.97-1.23 6-0.47 5.21-0.43 5.34 0.81 2.5 0.72-1.65 1.33-4.01 1.35-5.25 0.03-1.24 0.5-2.47 1.05-2.75 0.55-0.28 1.22-2.3 1.5-4.5 0.28-2.2 0.95-4.23 1.5-4.5 0.55-0.27 1-1.17 1-2 0-0.83-0.89-1.5-2-1.5-1.1 0-2.02 0.56-2.05 1.25zm128.01 19c-0.02 0.69-0.29 3.05-0.6 5.25-0.31 2.2-0.91 4.45-1.33 5-0.42 0.55-1.01 3.7-1.32 7l-0.56 6c2.4-7.75 3.34-10.67 3.63-11.5 0.29-0.83 1.27-3.53 2.17-6 0.9-2.47 1.51-5.06 1.35-5.75-0.17-0.69-0.97-1.25-1.8-1.25-0.82 0-1.52 0.56-1.54 1.25zm130.24 79.75c-0.66 2.2-1.2 4.45-1.2 5 0 0.55 0.56 1.16 1.25 1.37 0.87 0.25 1.32-1.27 1.49-5 0.13-2.96 0.1-5.37-0.06-5.37-0.16 0-0.83 1.8-1.48 4zm-197.11 25.85c-0.7 1.11-1.23 3.17-1.18 4.58 0.06 1.58 0.67 2.57 1.59 2.57 0.83 0 1.73-0.68 2-1.5 0.28-0.82 0.51-1.84 0.52-2.25 0.01-0.41-0.65 0.15-1.46 1.25-1.36 1.84-1.41 1.69-0.65-1.84 0.45-2.12 0.74-4.07 0.64-4.34-0.1-0.27-0.76 0.42-1.46 1.53zm-89.54 26.9c-0.88 3.71-1.76 8.78-1.96 11.25-0.37 4.5-0.37 4.5 0.97 1.5 0.74-1.65 1.37-3.79 1.39-4.75 0.03-0.96 0.5-1.97 1.05-2.25 0.55-0.28 0.83-1.06 0.63-1.75-0.2-0.69 0.26-2.82 1.02-4.75 0.77-1.93 1.39-4.06 1.37-4.75-0.01-0.69-0.66-1.25-1.45-1.25-0.95 0-1.98 2.3-3.02 6.75zm175.01 73c-0.89 3.71-1.78 8.77-1.98 11.25l-0.36 4.5c2.08-4.65 2.7-6.68 2.71-7.5 0.01-0.82 0.36-1.89 0.79-2.37 0.43-0.47 1.48-2.95 2.33-5.5 0.85-2.55 1.41-5.19 1.25-5.88-0.17-0.69-0.94-1.25-1.71-1.25-0.92 0-1.98 2.37-3.03 6.75zm110.05 3c-0.28 0.96-0.81 3.55-1.19 5.75-0.37 2.2-1.05 4.45-1.49 5-0.45 0.55-0.76 1.9-0.71 3 0.06 1.1-0.19 3.57-0.55 5.5-0.36 1.93 1.12-1.68 3.28-8 2.17-6.32 3.97-11.84 4-12.25 0.03-0.41-0.6-0.75-1.4-0.75-0.79 0-1.67 0.79-1.94 1.75zm-232.05 56.25c-0.32 1.93-0.46 4.54-0.32 5.81l0.26 2.3c2.78-3.57 3.55-5.29 3.5-6.11-0.05-0.82-0.71-0.15-1.46 1.5-0.76 1.65-1.41 2.44-1.46 1.75-0.04-0.69 0.33-2.26 0.84-3.5 0.51-1.26 0.54-2.91 0.07-3.75-0.63-1.11-1-0.58-1.43 2z"/>
		<path id="Path 11" class="s14" d="m162.14 26.8c0.2 0.55 2.61 2.85 5.36 5.11 2.75 2.25 5.45 4.09 6 4.07 0.55-0.02-1.02-1.84-3.5-4.03-2.47-2.2-5.34-4.48-6.36-5.07-1.14-0.66-1.72-0.69-1.5-0.08zm139.69 36.51c0.05 0.66 2.13 3.1 4.63 5.44 2.5 2.34 4.77 4.03 5.04 3.75 0.27-0.28-1.81-2.72-4.63-5.44-2.82-2.71-5.09-4.4-5.04-3.75zm40.65 48.44c-0.3 1.51-1.21 4.78-2.02 7.25-0.81 2.47-1.47 5.29-1.46 6.25 0 0.96 0.45 1.75 1 1.75 0.55 0 2.13-3.6 3.5-8 1.38-4.4 2.27-8.45 2-9-0.27-0.55-0.94-1-1.48-1-0.55 0-1.24 1.24-1.54 2.75zm-42.92 4.25c0.43 1.38 1.28 4.97 1.9 8 0.61 3.03 1.38 5.05 1.69 4.5 0.32-0.55 0.07-3.56-0.54-6.68-0.61-3.12-1.72-6.27-2.47-7-1.15-1.11-1.24-0.92-0.58 1.18zm-152.56 21.95c1.93 1.63 4.18 2.97 5 2.97 0.88 0 0.06-1.22-2-2.97-1.92-1.64-4.17-2.97-5-2.97-0.88 0-0.06 1.22 2 2.97zm-75.5 144.97c0.55 0.52 4.6 2.78 9 5.02 4.4 2.24 8.56 4.07 9.25 4.07 0.69-0.01 1.25-0.46 1.25-1.01 0-0.55-0.56-1.01-1.25-1.03-0.69-0.01-4.85-1.83-9.25-4.03-4.4-2.2-8.45-3.99-9-3.99q-1 0.02 0 0.97zm127.5 20.08c0 0.55 1.01 1.01 2.25 1.02 1.24 0 3.83 0.58 5.75 1.28 1.93 0.7 4.96 2.04 6.75 2.99 1.79 0.94 3.48 1.71 3.75 1.71 0.28 0 0.5-0.34 0.49-0.75 0-0.41-1.46-1.59-3.25-2.61-1.78-1.03-5.26-2.48-7.74-3.24-2.47-0.76-5.29-1.38-6.25-1.39-0.96-0.01-1.75 0.44-1.75 0.99zm121.99 11.75c-0.01 0.41 2.13 1.47 4.75 2.34 2.62 0.88 5.55 1.89 6.51 2.25 0.96 0.36 1.75 0.21 1.75-0.34 0-0.55-2.47-1.9-5.5-3-3.02-1.1-5.95-2-6.5-2-0.55 0-1.01 0.34-1.01 0.75z"/>
		<path id="Path 12" class="s15" d="m261 52.75c-1.23 4.81-2.65 9.2-3.14 9.75-0.49 0.55-0.89 2.24-0.88 3.75 0.01 1.51 0.58 2.76 1.27 2.77 0.72 0.01 2.78-4.83 4.88-11.49 1.99-6.33 3.45-11.96 3.25-12.52-0.21-0.55-1-1.01-1.76-1.01-0.89 0-2.16 3.08-3.62 8.75zm63.54 41.9c0.35 1.57 1.73 4.76 3.05 7.1 1.33 2.34 2.97 4.1 3.66 3.92 0.69-0.19 1.39-0.97 1.57-1.75 0.17-0.78-0.99-3.67-2.57-6.42-1.59-2.75-3.67-5.16-4.63-5.35-1.43-0.29-1.62 0.15-1.08 2.5zm-256.57 7.1c-0.01 1.12 1.8 2.66 5.01 4.25 3.42 1.7 5.39 2.18 6.13 1.5 0.61-0.55 0.83-1.56 0.5-2.25-0.34-0.69-2.41-2.15-4.61-3.25-2.2-1.1-4.67-2-5.5-2-0.82 0-1.51 0.79-1.53 1.75zm94.03 20.25c0 1.1 1.57 4.25 3.5 7 1.93 2.75 3.95 5 4.5 5 0.55 0 1.23-0.45 1.5-1 0.28-0.55-0.02-2.01-0.64-3.25-0.63-1.24-2.43-3.94-4-6-1.58-2.06-3.31-3.75-3.86-3.75-0.55 0-1 0.9-1 2zm188.05 18.58c-0.47 1.4-0.9 3.53-0.96 4.74-0.06 1.2-0.53 3.53-1.04 5.18-0.51 1.65-1.36 5.25-1.91 8-0.87 4.46-0.82 4.78 0.46 3 0.79-1.1 1.71-3.57 2.05-5.5 0.34-1.93 0.96-3.95 1.39-4.5 0.43-0.55 1.16-2.74 1.62-4.87 0.46-2.14 1.18-4.05 1.59-4.25 0.41-0.21 0.73-1.01 0.7-1.77-0.02-0.77-0.72-1.66-1.55-1.98q-1.5-0.6-2.35 1.95zm-197.37 25.62c-0.36 1.27-0.65 3.65-0.65 5.3 0 1.65-0.44 3.45-0.99 4-0.54 0.55-1.23 3.14-1.51 5.75-0.29 2.61-0.86 5.31-1.27 6q-0.73 1.24 0.5 0.5c0.68-0.41 1.78-2.44 2.44-4.5 0.67-2.06 1.1-4.2 0.96-4.75-0.13-0.55 0.12-1.22 0.57-1.5 0.44-0.28 1.38-2.53 2.08-5 0.7-2.47 1.32-5.16 1.38-5.96 0.05-0.8-0.57-1.61-1.38-1.8-0.85-0.19-1.75 0.63-2.13 1.96zm142.3 122.05c-0.01 0.69 0.44 2.71 1 4.5 0.71 2.24 1.64 3.25 3.02 3.25 1.72 0 1.91-0.46 1.38-3.25-0.33-1.79-1.12-3.83-1.75-4.54-0.62-0.72-1.69-1.28-2.38-1.25-0.69 0.02-1.26 0.6-1.27 1.29zm-179.03 40.06c-0.6 2.86-1.56 6.09-2.13 7.19-0.57 1.1-0.83 2.68-0.58 3.5 0.26 0.82-0.15 3.19-0.89 5.25-0.74 2.06-1.13 3.75-0.85 3.75 0.27 0 1.4-2.02 2.5-4.5 1.1-2.48 1.93-4.84 1.84-5.25-0.09-0.41 0.18-1.65 0.6-2.75 0.42-1.1 1.39-3.69 2.16-5.75 0.77-2.06 1.38-4.15 1.35-4.64-0.02-0.49-0.69-1.14-1.47-1.44-1.05-0.4-1.72 0.82-2.53 4.64zm52.03 18.44c-0.02 0.41 0.84 2.77 1.9 5.25 1.06 2.48 2.67 5.18 3.57 6q1.63 1.5 2.64 0.5 1.01-0.99-1.54-6.75c-1.88-4.23-3.08-5.75-4.55-5.75-1.1 0-2.01 0.34-2.02 0.75z"/>
		<path id="Path 13" class="s16" d="m209.58 20.75c-0.29 0.41 0.21 3 1.1 5.75 0.89 2.75 2.45 6.24 3.47 7.75 1.02 1.51 2.52 2.75 3.35 2.75 0.82 0 1.5-0.79 1.51-1.75 0-0.96-0.59-2.65-1.32-3.75-0.73-1.1-2.08-4.14-3.01-6.75-0.96-2.71-2.3-4.75-3.13-4.75-0.8 0-1.69 0.34-1.97 0.75zm-93.98 24.64c-0.33 0.89-0.43 1.95-0.22 2.36 0.22 0.41 3.93 1.34 8.25 2.06 5.33 0.88 8.19 0.98 8.87 0.29q1-1.02-0.5-2.57c-0.82-0.86-3.3-1.81-5.5-2.11-2.2-0.3-5.42-0.8-7.15-1.1-2.32-0.4-3.3-0.12-3.75 1.07zm59.4 45.49c-2.63 0.47-3.5 1.12-3.5 2.62 0 1.87 0.64 1.99 9.5 1.91 7.99-0.07 9.56-0.35 9.89-1.74 0.25-1.08-0.55-2.02-2.25-2.67-1.45-0.55-4.33-0.94-6.39-0.87-2.06 0.07-5.32 0.41-7.25 0.75zm87.56 16.39c-0.18 0.68-0.72 4.1-1.19 7.6-0.56 4.06-0.51 6.9 0.13 7.84 0.83 1.23 1.2 1.25 2.2 0.13 0.67-0.74 1.68-3.81 2.26-6.84 0.58-3.03 0.82-6.29 0.55-7.25-0.28-0.96-1.21-1.97-2.06-2.23-0.86-0.27-1.71 0.07-1.89 0.75zm-193.13 29.98c-0.42 0.77 2.18 4.11 6.7 8.63 5.38 5.38 7.84 7.2 9.12 6.75 1.14-0.41 1.49-1.14 1-2.09-0.41-0.81-3.68-4.42-7.25-8.03-3.58-3.62-7.04-6.56-7.7-6.54-0.66 0.02-1.5 0.59-1.87 1.28zm304.07 15.42c-0.46 0.36-0.76 1.26-0.67 2 0.1 0.73 2.22 2.34 4.73 3.58 3.01 1.49 4.88 1.91 5.52 1.25 0.53-0.55 0.73-1.68 0.45-2.5-0.29-0.82-1.87-2.29-3.53-3.25-1.65-0.96-3.6-1.75-4.33-1.75-0.74 0-1.71 0.3-2.17 0.67zm-146.27 5.87c-0.4 0.84-0.28 1.91 0.27 2.37 0.55 0.46 3.14 1.11 5.75 1.46 3.33 0.44 4.95 0.26 5.41-0.62 0.37-0.71-0.38-2.02-1.75-3.04-1.33-0.99-3.88-1.78-5.68-1.75-1.94 0.02-3.58 0.67-4 1.58zm-119.91 11.51c0.15 1.91 1.08 2.56 5.18 3.62 2.75 0.71 5.79 1.3 6.75 1.31 1.11 0.01 1.65-0.62 1.48-1.73-0.14-0.96-1.38-2.29-2.75-2.94-1.36-0.66-4.36-1.51-6.66-1.89-3.93-0.66-4.16-0.57-4 1.63zm211.68 13.82c-1.38 0.41-4.19 1.74-6.25 2.94-2.06 1.2-3.75 2.87-3.75 3.69 0 0.82 0.79 1.77 1.75 2.1 0.97 0.34 3.97-0.52 6.75-1.92 2.75-1.39 6.24-3.01 7.75-3.6 1.51-0.59 2.6-1.64 2.42-2.33-0.18-0.69-1.64-1.33-3.25-1.44-1.6-0.1-4.05 0.15-5.42 0.56zm-217.4 19.88c-0.27 0.41 1.2 3.22 3.27 6.25 2.07 3.03 4.52 5.61 5.45 5.75 0.94 0.14 1.68-0.41 1.68-1.25 0-0.82-1.46-3.77-3.25-6.54-1.85-2.86-3.98-5.02-4.95-5-0.94 0.02-1.93 0.38-2.2 0.79zm165.63 1.78q-0.73 1.54 2.47 4.75c1.76 1.77 3.9 4.91 4.75 6.97 1.06 2.57 2.18 3.75 3.55 3.75 1.1 0 2.01-0.34 2.02-0.75 0.02-0.41-0.84-2.78-1.9-5.25-1.06-2.47-3.54-5.96-5.52-7.75-1.98-1.79-3.84-3.25-4.12-3.25-0.29 0-0.86 0.69-1.25 1.53zm65.13 36.18c-0.53 1.35 0.51 2.84 4.22 6.04 4.45 3.83 5.06 4.09 6.42 2.67 1.34-1.41 1.08-1.94-2.5-5.09-2.2-1.93-4.77-3.93-5.72-4.46-1.3-0.72-1.89-0.52-2.42 0.84zm-242.36 9.58c-1.92 1.82-4.65 4.64-6.06 6.26-1.41 1.62-3.1 3.96-3.75 5.2-0.83 1.56-0.88 2.86-0.19 4.25 0.55 1.1 1.11 2.02 1.25 2.04 0.14 0.02 1.42-1.66 2.86-3.75 1.44-2.08 4.94-6.27 7.8-9.29 2.85-3.03 5.01-5.95 4.8-6.5-0.21-0.55-1.01-1.12-1.79-1.26-0.78-0.14-2.99 1.23-4.92 3.05zm122.04 16.46c-0.56 2.06-1.03 5.89-1.03 8.5-0.01 2.61 0.21 5.43 0.49 6.25 0.28 0.82 1.06 1.5 1.75 1.51 0.83 0 1.65-3.14 2.44-9.25 0.65-5.09 0.99-9.6 0.75-10.01-0.24-0.41-1.1-0.75-1.9-0.75-0.84 0-1.9 1.6-2.5 3.75zm-65.49 21.25c-0.3 0.55-0.15 1.56 0.34 2.25 0.49 0.69 3.08 1.6 5.75 2.03 2.67 0.42 8.01 1.85 11.86 3.18 5.95 2.04 7.23 2.19 8.5 1.04 1.31-1.19 1.06-1.63-2-3.42-1.93-1.12-7.32-2.95-12-4.05-4.68-1.1-9.27-2.01-10.2-2.02-0.94 0-1.95 0.44-2.25 0.99zm-54.97 23.58c-3.16 2.57-5.71 5.28-5.67 6.04 0.05 0.76 0.76 1.61 1.59 1.88 0.84 0.28 4.03-1.53 7.25-4.13 3.16-2.54 5.75-5.35 5.75-6.24 0-0.88-0.71-1.74-1.58-1.91-0.87-0.17-4.17 1.8-7.34 4.36zm177.59 1.17c0.2 0.96 2.15 2.6 4.34 3.64 2.2 1.04 5.91 2.16 8.25 2.5 3.9 0.56 4.28 0.42 4.4-1.62 0.1-1.7-0.55-2.37-2.76-2.83-1.6-0.34-4.92-1.25-7.4-2.03-2.48-0.79-5.1-1.43-5.84-1.42-0.74 0-1.18 0.79-0.99 1.76z"/>
		<path id="Path 14" class="s17" d="m184.24 40.27c-1.24 0.68-3.21 2.81-4.38 4.73-1.22 2.02-1.88 4.35-1.56 5.5 0.31 1.1 1.72 2.56 3.13 3.25 1.41 0.69 3.02 1.25 3.57 1.25 0.55 0 2.46-1.32 4.25-2.93 2.47-2.22 3.18-3.6 2.94-5.75-0.17-1.55-0.51-3.83-0.75-5.07-0.3-1.54-1.15-2.25-2.69-2.24-1.24 0.01-3.27 0.58-4.51 1.26zm95.34 38.84c-0.97 1.28-1.73 3.36-1.68 4.61 0.06 1.39 1.46 3.25 3.6 4.78 3.2 2.29 3.82 2.4 7.25 1.29 2.06-0.66 4.33-1.68 5.04-2.25 0.72-0.57 1.28-1.6 1.25-2.29-0.02-0.69-1.28-2.63-2.79-4.31-1.92-2.14-3.98-3.23-6.82-3.62-3.45-0.46-4.34-0.19-5.85 1.79zm-157.75 40.33c-1.47 0.71-3.59 2.81-4.71 4.67-1.12 1.87-2.06 3.95-2.08 4.64-0.02 0.69 0.86 2.15 1.96 3.25 1.1 1.1 3.12 2 4.5 2 1.37 0 3.85-1.13 5.5-2.5 2.72-2.27 2.94-2.89 2.38-6.75-0.34-2.34-1.35-4.82-2.25-5.52-0.9-0.69-1.86-1.22-2.13-1.17-0.28 0.06-1.7 0.68-3.17 1.38zm147.88 45.34c-1.54 0.94-3.04 2.62-3.35 3.72-0.31 1.1-0.13 2.9 0.41 4 0.53 1.1 2.27 3.48 3.85 5.29 2.06 2.36 4.1 3.5 7.14 4 3.85 0.64 4.53 0.43 7.23-2.29 1.64-1.65 2.99-3.79 2.99-4.75 0.01-0.96-1.11-2.43-2.48-3.25-1.38-0.82-2.49-2.29-2.47-3.25 0.02-0.96-0.77-2.53-1.75-3.47-1-0.97-3.32-1.73-5.28-1.73-1.93 0-4.76 0.78-6.29 1.73zm-225.74 9.86c-1.36 0.91-3.04 2.37-3.74 3.26-0.69 0.88-1.26 3.51-1.25 5.85 0.02 3.24 0.5 4.49 2.02 5.25 1.1 0.55 3.13 1 4.5 1 1.83 0 3.17-1.07 5-4l2.5-4c-3.49-6.47-4.96-8.5-5.53-8.68-0.57-0.18-2.14 0.41-3.5 1.32zm318.75 2.67c-0.97 0.73-1.98 3.27-2.3 5.75-0.53 4.19-0.36 4.6 3.01 7.19 1.96 1.51 4.36 2.55 5.32 2.3 0.96-0.24 2.38-1.93 3.15-3.75 0.85-2.01 1.12-4.47 0.7-6.3-0.37-1.65-1.45-3.8-2.39-4.78-0.94-0.98-2.62-1.77-3.74-1.75-1.11 0.02-2.8 0.62-3.75 1.34zm-69.6 59.24c-1.7 1.11-2.35 2.42-2.25 4.51 0.07 1.62 0.52 3.95 0.99 5.19 0.57 1.51 2.42 2.74 5.61 3.75 4.53 1.43 4.83 1.4 6.16-0.5 0.77-1.1 1.4-3.24 1.39-4.75-0.01-1.79-1.24-3.97-3.52-6.25-1.92-1.93-4.06-3.5-4.75-3.51-0.69 0-2.32 0.7-3.63 1.56zm-181.91 20.61c-1.77 1.01-3.66 2.96-4.21 4.34-0.55 1.37-1.01 3.51-1.03 4.75-0.02 1.24 0.77 3.03 1.75 3.97 1.18 1.15 3.47 1.75 6.78 1.79 3.76 0.04 5.72-0.51 7.89-2.23 1.59-1.25 3.25-2.96 3.69-3.78 0.44-0.82 0.26-3.07-0.4-5-0.66-1.93-1.53-4.06-1.94-4.75-0.43-0.74-2.51-1.18-5.03-1.09-2.36 0.09-5.74 0.99-7.5 2zm182.09 58.47c-0.67 0.28-2.13 2.05-3.25 3.94l-2.05 3.43c3.51 7.89 4.56 9.01 6.25 9.03 1.24 0.01 3.27-1 4.52-2.25 1.26-1.27 2.51-4.06 2.82-6.28 0.36-2.58 0.09-4.6-0.76-5.7-0.73-0.93-2.45-1.91-3.83-2.19-1.37-0.27-3.04-0.26-3.7 0.02zm-97.14 11.62c-0.59 0.69-1.38 2.6-1.76 4.25-0.5 2.18-0.1 4.02 1.46 6.75 1.18 2.06 3.04 3.98 4.14 4.25 1.1 0.27 3.14-0.06 4.54-0.75 1.4-0.69 2.77-1.93 3.04-2.75 0.28-0.82 0.26-3.19-0.04-5.25-0.47-3.29-1.09-3.99-5.04-5.75-2.47-1.1-4.67-2-4.89-2-0.21 0-0.86 0.56-1.45 1.25z"/>
	</g>
</svg>